<svg xmlns="http://www.w3.org/2000/svg" version="1.0" width="1212.000000pt" height="432.000000pt" viewBox="0 0 1212.000000 432.000000" preserveAspectRatio="xMidYMid meet">

<g transform="translate(0.000000,432.000000) scale(0.100000,-0.100000)" fill="#d11b1c" stroke="none">
<path d="M6006 4135 c-11 -8 -31 -15 -45 -15 -59 0 -170 -58 -228 -118 -39 -41 -86 -107 -96 -135 -6 -16 -14 -18 -64 -10 -144 20 -266 -4 -374 -73 -67 -42 -148 -119 -149 -141 0 -6 -4 -13 -8 -15 -11 -4 -49 -89 -64 -140 -15 -55 -15 -201 0 -256 15 -51 53 -136 64 -140 4 -2 8 -9 8 -16 0 -24 125 -133 190 -164 35 -18 68 -38 72 -45 4 -6 8 -186 8 -399 l0 -388 770 0 770 0 0 393 1 392 62 30 c84 39 194 149 231 230 15 33 32 69 38 79 13 24 13 257 0 282 -5 11 -22 46 -38 79 -32 67 -40 78 -103 147 -24 26 -50 48 -57 48 -8 0 -14 4 -14 9 0 8 -78 49 -135 72 -50 19 -138 24 -246 13 l-66 -6 -27 34 c-14 19 -26 39 -26 44 -1 29 -188 174 -224 174 -8 0 -17 4 -20 9 -3 4 -27 11 -53 14 -26 3 -49 10 -51 16 -5 16 -104 13 -126 -4z m177 -169 c18 -7 50 -22 71 -31 102 -46 186 -186 186 -312 0 -57 -17 -141 -31 -158 -5 -5 -9 -12 -9 -16 0 -9 108 -79 122 -79 16 0 48 54 48 80 0 10 5 22 10 25 6 3 10 45 10 93 0 111 5 128 41 143 57 23 242 -8 257 -43 2 -5 8 -8 14 -8 15 0 107 -92 108 -107 0 -7 5 -13 10 -13 6 0 10 -9 10 -19 0 -11 4 -22 8 -25 5 -3 14 -37 21 -76 15 -80 5 -143 -32 -219 -31 -63 -130 -161 -162 -161 -8 0 -15 -4 -15 -10 0 -5 -8 -10 -17 -10 -9 0 -30 -4 -47 -10 -17 -5 -43 -12 -58 -15 l-28 -5 0 -201 c0 -119 -4 -208 -10 -220 -10 -18 -28 -19 -609 -19 -564 0 -599 1 -614 18 -14 15 -17 50 -19 223 l-3 204 -25 3 c-99 12 -229 97 -262 173 -7 16 -16 29 -20 29 -5 0 -8 11 -8 24 0 14 -4 28 -10 31 -14 9 -13 178 1 212 32 79 45 99 81 139 22 23 67 57 101 75 59 32 68 33 167 33 97 0 109 -2 159 -29 57 -31 112 -79 146 -129 l20 -28 38 21 c21 11 44 21 51 21 7 0 19 7 26 15 9 11 7 21 -14 48 -14 19 -26 38 -26 42 0 5 -23 30 -50 56 -61 57 -60 74 8 143 39 40 92 72 162 99 30 11 162 7 193 -7z m511 -1588 c10 -40 7 -153 -6 -166 -9 -9 -158 -12 -609 -12 -530 0 -599 2 -613 16 -20 19 -23 153 -4 172 9 9 160 12 619 12 l607 0 6 -22z" fill="#d11b1c"/>
<path d="M5750 2915 l0 -155 75 0 76 0 -3 153 -3 152 -72 3 -73 3 0 -156z" fill="#d11b1c"/>
<path d="M6270 2915 l0 -155 70 0 70 0 0 155 0 155 -70 0 -70 0 0 -155z" fill="#d11b1c"/>
<path d="M6014 1609 c-3 -5 -15 -9 -27 -9 -48 0 -83 -71 -65 -130 16 -49 45 -65 114 -64 75 0 104 28 104 99 0 41 -5 56 -22 71 -28 24 -96 46 -104 33z" fill="#d11b1c"/>
<path d="M9350 1040 l0 -581 83 3 82 3 0 575 0 575 -82 3 -83 3 0 -581z" fill="#d11b1c"/>
<path d="M190 1020 l0 -560 338 2 337 3 0 70 0 70 -250 5 -250 5 -3 483 -2 482 -85 0 -85 0 0 -560z" fill="#d11b1c"/>
<path d="M5346 1414 c-3 -26 -6 -66 -6 -89 0 -58 -21 -75 -93 -75 l-57 0 0 -80 0 -79 68 -3 67 -3 5 -225 c6 -240 13 -273 65 -325 44 -44 162 -77 255 -73 l65 3 0 75 0 75 -84 10 c-81 10 -85 11 -103 43 -16 30 -18 54 -16 225 l3 192 108 3 107 3 0 79 0 79 -107 3 -108 3 -3 103 -3 102 -78 0 -78 0 -7 -46z" fill="#d11b1c"/>
<path d="M6462 1396 c-7 -35 -12 -77 -12 -93 0 -41 -15 -51 -80 -55 l-55 -3 0 -75 0 -75 65 -5 65 -5 5 -230 c3 -126 9 -239 13 -250 23 -54 34 -68 72 -90 56 -32 154 -55 236 -55 l69 0 0 79 0 78 -89 7 c-89 7 -89 8 -105 41 -13 27 -16 71 -16 229 l0 195 103 3 102 3 0 75 0 75 -100 5 -100 5 -3 103 -3 102 -78 0 -78 0 -11 -64z" fill="#d11b1c"/>
<path d="M10782 1409 c-7 -28 -12 -70 -12 -94 0 -23 -6 -47 -13 -53 -7 -6 -37 -12 -67 -14 l-55 -3 0 -75 0 -75 65 -5 65 -5 2 -225 c2 -124 7 -234 12 -245 26 -61 37 -76 70 -98 49 -32 155 -57 241 -57 l70 0 0 79 0 78 -86 7 c-51 4 -92 13 -100 21 -25 25 -35 108 -32 275 l3 165 105 5 105 5 0 75 0 75 -94 3 c-52 1 -101 8 -108 14 -9 7 -13 39 -13 104 l0 94 -73 0 -74 0 -11 -51z" fill="#d11b1c"/>
<path d="M1285 1250 c-3 -5 -15 -10 -26 -10 -35 0 -115 -60 -170 -127 -9 -11 -29 -46 -44 -79 -27 -55 -29 -68 -29 -179 0 -114 2 -123 32 -185 29 -62 75 -118 118 -148 127 -84 295 -98 423 -34 86 43 181 149 181 202 0 6 -38 10 -85 10 l-84 0 -43 -43 c-75 -74 -175 -83 -273 -25 -52 30 -100 112 -93 160 l3 23 303 3 302 2 0 80 c0 44 -4 88 -9 98 -5 9 -17 37 -27 60 -25 61 -102 137 -176 172 -58 28 -69 30 -179 30 -68 0 -120 -4 -124 -10z m221 -146 c19 -9 50 -35 70 -58 29 -34 34 -47 32 -81 l-3 -40 -190 -2 c-104 -2 -196 1 -204 6 -40 26 32 142 110 175 46 20 142 20 185 0z" fill="#d11b1c"/>
<path d="M2135 1238 c-92 -46 -145 -123 -145 -214 0 -72 32 -120 104 -153 28 -13 64 -30 80 -37 16 -8 42 -14 57 -14 15 0 31 -4 34 -10 3 -5 18 -10 33 -10 39 0 132 -36 148 -57 18 -24 17 -78 -2 -108 -18 -27 -81 -55 -124 -55 -62 0 -136 43 -166 96 -9 16 -24 19 -98 22 -85 3 -86 2 -86 -21 0 -60 74 -147 160 -189 110 -53 274 -54 375 -1 58 31 105 71 105 90 0 7 5 13 10 13 6 0 10 8 10 17 0 9 5 31 12 49 9 26 9 45 -2 91 -8 32 -19 63 -25 68 -28 28 -85 65 -99 65 -8 0 -18 5 -21 10 -3 6 -17 10 -31 10 -13 0 -32 4 -42 9 -9 5 -48 16 -87 26 -38 9 -74 21 -79 26 -6 5 -19 9 -29 9 -21 0 -67 47 -67 68 0 31 42 71 90 87 46 15 54 15 99 0 30 -10 59 -28 73 -45 22 -29 26 -30 106 -30 93 0 95 3 60 69 -27 50 -59 81 -121 115 -45 24 -56 26 -170 25 -100 -1 -129 -5 -162 -21z" fill="#d11b1c"/>
<path d="M3558 1237 c-20 -12 -56 -38 -80 -59 -45 -38 -58 -40 -58 -7 0 11 -7 33 -15 49 -15 28 -19 30 -78 30 -36 0 -68 -5 -75 -12 -9 -9 -12 -146 -12 -554 0 -298 3 -549 6 -558 5 -13 23 -16 90 -16 l84 0 0 218 c0 119 4 223 8 229 6 9 19 3 47 -22 147 -128 363 -113 505 35 43 44 53 61 78 120 16 40 35 165 29 196 -3 16 -8 47 -12 69 -6 38 -14 60 -39 114 -27 58 -153 171 -191 171 -8 0 -17 5 -20 10 -4 6 -53 10 -118 9 -96 0 -117 -3 -149 -22z m200 -149 c53 -25 91 -60 111 -104 7 -16 17 -37 22 -46 14 -27 10 -128 -5 -173 -19 -53 -64 -105 -116 -132 -32 -18 -58 -23 -115 -23 -41 0 -77 5 -80 10 -3 6 -14 10 -23 10 -22 0 -112 96 -112 120 0 10 -4 22 -10 25 -5 3 -10 39 -10 80 0 41 5 77 10 80 6 3 10 16 10 28 0 31 66 99 120 125 61 28 136 29 198 0z" fill="#d11b1c"/>
<path d="M4540 1251 c-8 -5 -33 -17 -55 -27 -52 -24 -146 -118 -170 -169 -52 -111 -57 -259 -13 -365 28 -68 88 -149 123 -167 11 -6 40 -21 65 -35 63 -35 166 -48 260 -33 100 15 227 108 271 199 10 22 19 41 19 43 0 2 -42 3 -93 3 -90 0 -94 -1 -107 -25 -7 -14 -16 -25 -20 -25 -3 0 -15 -8 -26 -19 -11 -10 -44 -24 -73 -31 -63 -15 -125 -2 -183 39 -50 35 -96 128 -82 165 5 14 37 16 305 16 l299 0 0 85 c0 47 -4 93 -9 103 -5 9 -17 34 -27 56 -30 62 -103 131 -173 165 -61 29 -71 31 -180 30 -64 0 -123 -4 -131 -8z m244 -157 c57 -36 88 -85 84 -132 l-3 -37 -198 -3 c-221 -3 -222 -2 -197 66 28 79 111 131 209 132 52 0 72 -5 105 -26z" fill="#d11b1c"/>
<path d="M7170 1234 c-61 -34 -88 -61 -116 -116 -53 -105 -12 -208 104 -258 26 -11 55 -25 64 -30 10 -6 33 -10 52 -10 19 0 38 -4 41 -10 3 -5 21 -10 40 -10 19 0 37 -4 40 -10 3 -5 16 -10 28 -10 12 0 35 -10 51 -23 23 -19 29 -31 29 -65 0 -23 -7 -49 -14 -58 -21 -25 -89 -54 -130 -54 -54 0 -134 44 -154 85 l-16 35 -89 0 -90 0 0 -30 c0 -16 5 -30 10 -30 6 0 10 -7 10 -16 0 -26 82 -105 140 -134 133 -66 331 -52 441 33 40 31 79 118 79 176 0 75 -34 130 -100 165 -62 33 -69 36 -89 36 -11 0 -22 4 -25 9 -3 5 -23 11 -43 14 -56 7 -127 27 -137 38 -6 5 -18 9 -28 9 -10 0 -18 5 -18 10 0 6 -6 10 -14 10 -36 0 -26 99 12 119 74 39 164 29 212 -25 29 -33 31 -34 110 -34 74 0 80 2 80 20 0 25 -38 86 -76 121 -61 56 -107 69 -238 68 -109 0 -125 -3 -166 -25z" fill="#d11b1c"/>
<path d="M8630 1250 c0 -5 -8 -10 -18 -10 -9 0 -39 -20 -66 -45 -63 -58 -86 -59 -86 -5 0 50 -20 62 -103 58 l-62 -3 -3 -567 -2 -568 85 0 85 0 0 214 c0 118 3 221 6 230 5 14 9 14 33 -3 14 -11 35 -28 46 -38 43 -40 200 -82 236 -63 10 6 33 10 52 10 45 0 150 59 191 107 40 46 81 120 91 163 10 45 11 206 1 245 -25 100 -109 208 -193 249 -21 10 -46 22 -55 27 -25 13 -238 12 -238 -1z m153 -152 c49 -15 137 -96 137 -127 0 -11 5 -23 10 -26 6 -3 10 -44 10 -90 0 -46 -4 -87 -10 -90 -5 -3 -10 -14 -10 -23 -1 -21 -92 -112 -113 -112 -9 0 -19 -5 -22 -10 -3 -5 -40 -10 -80 -10 -84 0 -128 18 -181 76 -54 59 -80 175 -53 241 31 74 40 90 66 115 66 63 153 83 246 56z" fill="#d11b1c"/>
<path d="M9980 1250 c-8 -4 -36 -18 -63 -31 -61 -29 -108 -75 -135 -133 -39 -81 -35 -86 62 -86 82 0 85 1 98 27 7 14 30 40 51 57 67 54 207 47 255 -13 27 -34 43 -81 40 -113 l-3 -33 -155 -6 c-178 -7 -208 -12 -269 -42 -45 -22 -111 -93 -111 -120 0 -9 -4 -19 -10 -22 -12 -8 -13 -89 -1 -113 30 -62 47 -89 63 -103 53 -48 215 -92 256 -70 12 6 32 11 47 11 32 0 100 42 142 88 27 29 35 33 47 22 9 -6 19 -34 22 -61 l7 -50 71 3 71 3 0 295 c0 257 -2 300 -17 330 -22 46 -87 110 -135 134 -21 10 -46 22 -55 27 -22 11 -258 11 -278 -1z m288 -443 c13 -15 5 -87 -9 -87 -5 0 -9 -8 -9 -19 0 -21 -51 -76 -90 -96 -47 -25 -98 -28 -144 -11 -76 29 -104 81 -77 142 27 60 85 81 222 83 69 1 100 -3 107 -12z" fill="#d11b1c"/>
<path d="M11490 1234 c-92 -51 -140 -123 -140 -210 1 -63 37 -118 100 -150 87 -44 113 -54 141 -54 15 0 31 -4 34 -10 3 -5 18 -10 33 -10 39 0 132 -36 148 -57 16 -22 18 -77 3 -105 -14 -26 -84 -58 -130 -58 -54 0 -134 44 -154 85 l-16 35 -89 0 -90 0 0 -30 c0 -16 5 -30 10 -30 6 0 10 -8 10 -19 0 -25 100 -118 152 -140 108 -46 278 -43 366 6 55 31 102 72 102 90 0 7 3 13 8 13 10 0 32 74 32 112 0 72 -34 128 -100 162 -62 33 -69 36 -89 36 -11 0 -23 5 -26 10 -3 6 -18 10 -32 10 -31 0 -134 29 -147 41 -6 5 -18 9 -28 9 -10 0 -18 5 -18 10 0 6 -6 10 -12 10 -7 0 -18 12 -25 26 -19 40 11 84 72 107 66 25 132 10 174 -39 30 -33 32 -34 111 -34 74 0 80 2 80 20 0 25 -38 86 -73 118 -14 13 -47 35 -73 48 -43 22 -60 24 -168 23 -109 0 -125 -3 -166 -25z" fill="#d11b1c"/>
<path d="M5951 1237 c-8 -11 -11 -116 -9 -393 l3 -379 88 -3 87 -3 -2 393 -3 393 -76 3 c-56 2 -79 -1 -88 -11z" fill="#d11b1c"/>
</g>
</svg>